<svg xmlns="http://www.w3.org/2000/svg" width="24" height="24" viewBox="0 -15 598 598">
	<path d="M119 5c9 4 15 10 20 18 6 7 11 16 11 26 0 14-11 26-7 40 2 8 8 16 15 20 12 5 25 0 35-7l32-31 58-57c6-3 11-3 16-3s11 1 14 4c31 25 60 56 88 84 6 5 13 9 21 11s17 1 23-5c7-6 12-15 11-24-1-11-8-21-7-33 0-13 8-24 16-33s21-15 33-15c16-1 32 4 46 12 12 5 23 13 32 22 10 13 17 28 20 44 3 14 3 30-5 42-7 12-20 21-34 24-9 2-19 1-28 0-5-1-9-2-14-1-8 1-17 5-21 12-5 7-5 17-2 26 2 5 4 10 9 14a1594 1594 0 0182 85c3 4 7 8 7 13s-2 9-4 13-6 8-10 11l-46 48c-2 3-4 6-8 8-9 3-20 5-29 3-13-2-23-12-25-24-3-14 3-28 2-42-1-10-6-19-13-26s-18-11-28-12c-14 0-29 4-42 10-21 11-38 30-48 51-6 14-10 29-7 43 4 16 15 29 30 34 10 3 20 2 30 1 11 0 22-2 32 3 11 5 17 19 15 31-1 5-2 11-6 14L328 566c-7 6-15 11-24 14-7 2-14-1-21-4l-13-10-106-107-4-9c-2-10-1-21 5-29 5-7 13-10 21-10 15-1 31 3 46 0s27-15 32-29c4-11 4-24 0-35-5-20-18-38-34-52a97 97 0 00-51-23c-12-1-25 2-35 9-8 7-15 18-15 29-1 13 4 26 2 39-1 13-12 25-25 27-9 2-19 0-27-3l-6-2-56-59c-6-5-9-13-8-22 1-4 4-7 6-11 14-17 30-33 46-49l36-33c5-6 9-13 11-21 1-7 0-16-4-22-7-9-18-13-29-11-13 2-26 4-39 0-16-5-30-18-34-34S1 77 7 62c3-9 8-18 15-26A110 110 0 0188 1c10-2 21-1 31 4z"/>
</svg>
