<svg xmlns="http://www.w3.org/2000/svg" height="16" width="16" viewBox="0 0 245.4 220.7">
	<path d="M32 1.4C21.3 7.7.2 31.9 0 38.3v10.5c0 13.3 12.5 25 23.8 25a25 25 0 0 0 24.9-24.6c0 13.4 11 24.7 24.5 24.7a24.4 24.4 0 0 0 24.2-24.7A25.3 25.3 0 0 0 122.6 74h.2A25.3 25.3 0 0 0 148 49.2 24.4 24.4 0 0 0 172.2 74a24.7 24.7 0 0 0 24.5-24.7A25 25 0 0 0 221.6 74c11.3 0 23.8-11.8 23.8-25V38.2c-.2-6.4-21.3-30.6-32-37C180 .3 157 0 122.7 0 88.3 0 41.5.5 32 1.4zm65.2 66.2a28 28 0 0 1-4.8 6.1c-5.1 5-12.2 8.2-19.9 8.2a28.5 28.5 0 0 1-20-8.2 26.6 26.6 0 0 1-4.5-6c-1.3 2.3-3.1 4.2-5 6A28.5 28.5 0 0 1 23 82c-.9 0-1.8-.3-2.6-.6-1.1 11.4-1.6 22.3-1.7 30.2v12c.1 23.8-2.5 77.3 10.4 90.4 20 4.7 56.7 6.8 93.6 6.8 36.8 0 73.6-2.1 93.5-6.8 13-13 10.4-66.6 10.6-90.4l-.1-12c-.2-8-.6-18.8-1.7-30.2-.8.3-1.8.6-2.7.6a28.5 28.5 0 0 1-20-8.2 28.2 28.2 0 0 1-5-6 26.6 26.6 0 0 1-4.5 6 28.5 28.5 0 0 1-20 8.2c-7.7 0-14.7-3.2-19.8-8.2a28 28 0 0 1-4.8-6.1 28 28 0 0 1-4.7 6.1 28.5 28.5 0 0 1-20 8.2h-1.6a28.5 28.5 0 0 1-20-8.2 28 28 0 0 1-4.7-6.1zM76.7 94c8.1 0 15.3 0 24.3 9.7a207 207 0 0 1 43.5 0c8.8-9.7 16-9.7 24.2-9.7 3.8 0 19.1 0 29.8 30l11.5 41.1c8.5 30.7-2.7 31.4-16.7 31.4-20.8-.7-32.3-15.8-32.3-30.9-11.5 1.9-24.9 2.8-38.3 2.8-13.4 0-26.8-1-38.3-2.8 0 15-11.5 30.2-32.3 31-14 0-25.2-.8-16.7-31.5l11.5-41.1c10.6-30 26-30 29.8-30zm46 23.6s-21.9 20-25.8 27.2l14.3-.6v12.5c0 .6 5.7.3 11.5 0 5.7.3 11.5.6 11.5 0v-12.5l14.3.6c-4-7.2-25.8-27.2-25.8-27.2z"/>
</svg>